<?xml version="1.0" encoding="UTF-8"?>
<svg version="1.1" xmlns="http://www.w3.org/2000/svg" width="512" height="512">
<path d="M0 0 C168.96 0 337.92 0 512 0 C512 168.96 512 337.92 512 512 C343.04 512 174.08 512 0 512 C0 343.04 0 174.08 0 0 Z " fill="#209CEE" transform="translate(0,0)"/>
<path d="M0 0 C0.80759766 -0.03287109 1.61519531 -0.06574219 2.44726562 -0.09960938 C8.58988196 -0.15405642 12.88839105 1.384441 17.5625 5.4375 C23.28760623 12.98252821 23.32448708 21.38501041 22.5625 30.4375 C19.90406408 48.80015985 10.94772348 64.60986354 -3.98046875 75.77734375 C-12.71776048 81.68091924 -20.68715086 82.79269111 -31.140625 80.96484375 C-45.35616886 77.23214591 -53.83858353 67.90021852 -61.50390625 55.89453125 C-63.1427613 51.58139391 -61.87047805 48.41231217 -60.0546875 44.32421875 C-56.34591553 37.51371596 -52.44834541 31.35323849 -47.4375 25.4375 C-46.91800781 24.77363281 -46.39851563 24.10976562 -45.86328125 23.42578125 C-34.64476146 9.59956678 -17.8673226 0.1277251 0 0 Z " fill="#FDFEFE" transform="translate(367.4375,215.5625)"/>
<path d="M0 0 C0.73677979 -0.01474365 1.47355957 -0.0294873 2.23266602 -0.04467773 C7.74437612 0.05908234 12.0351948 1.48490774 16.625 4.5625 C18.46484375 6.52734375 18.46484375 6.52734375 19.5625 8.5 C19.94277344 9.14839844 20.32304687 9.79679688 20.71484375 10.46484375 C25.29564251 21.02230699 22.87534045 35.23781406 18.84277344 45.56591797 C12.18263445 61.08780334 2.78449439 71.69511884 -11.625 80.5625 C-22.50010412 83.46252777 -32.65317453 82.08180725 -42.375 76.5625 C-50.68482116 71.36556423 -59.15660744 63.00311818 -62.375 53.5625 C-61.97033375 48.61421274 -60.21679836 44.67851427 -57.875 40.375 C-57.51970215 39.71935059 -57.1644043 39.06370117 -56.79833984 38.38818359 C-47.27555012 21.35024597 -31.88278833 7.64289093 -13.26953125 1.4453125 C-8.78700035 0.42921222 -4.5844052 0.06004119 0 0 Z " fill="#FDFEFE" transform="translate(185.375,215.4375)"/>
</svg>
